<svg width="32" height="32" viewBox="0 0 32 32" fill="none" xmlns="http://www.w3.org/2000/svg">
<path fill-rule="evenodd" clip-rule="evenodd" d="M20.7538 4.14438C21.1976 4.28087 21.4989 4.67159 21.501 5.11396C21.5099 5.30808 21.5106 5.46608 21.5106 5.46608C21.5106 5.46608 21.5037 10.8535 14.7762 15.8126C12.0395 17.83 9.666 21.1093 9.04616 24.1754C8.96469 24.5854 8.62998 24.9085 8.19882 24.9926C7.76767 25.0766 7.32576 24.9053 7.08001 24.5584C5.16261 21.8644 2.98815 16.8298 6.61367 10.8681C9.88284 5.49268 15.9191 2.74395 20.7538 4.14438Z" fill="black"/>
<path fill-rule="evenodd" clip-rule="evenodd" d="M11.278 27.8709C10.8142 27.7302 10.4984 27.3224 10.4965 26.8607C10.4872 26.681 10.4861 26.5392 10.4861 26.5392C10.4861 26.5392 10.4931 21.1518 17.2205 16.1927C19.9327 14.1935 22.288 10.9547 22.9334 7.91294C23.0227 7.489 23.3729 7.15735 23.8207 7.07447C24.2687 6.99114 24.7252 7.17226 24.9766 7.5332C26.8797 10.2474 28.9703 15.2385 25.3831 21.1372C22.1215 26.4991 16.1072 29.2477 11.278 27.8709Z" fill="black"/>
</svg>
